<svg xmlns="http://www.w3.org/2000/svg" version="1.1" xmlns:xlink="http://www.w3.org/1999/xlink" xmlns:svgjs="http://svgjs.dev/svgjs" width="100%" height="100%" viewBox="0 0 1000 600"><rect width="1000" height="600" x="0" y="0" fill="#ccf381"/><g><rect width="333.3333333333333" height="333.3333333333333" rx="13.333333333333334" ry="13.333333333333334" y="143.48261488660177" fill="#4831d4" transform="matrix(1.0308392749763766,0,0,1.0308392749763766,0,-19.714087468981177)" x="121.26038360595703"/><path d="M232.98469197138223 235.1492866359105L232.98469197138223 372.47682435948866Q232.98469197138223 381.0668829743202 233.38159236942727 383.64673556161284L233.38159236942727 383.64673556161284L208.0933670082729 383.64673556161284L208.0933670082729 235.1492866359105L232.98469197138223 235.1492866359105ZM286.9064460486419 359.8327116789115L286.9064460486419 370.4923223692635Q286.9064460486419 379.05403095566334 287.61519675943657 383.64673556161284L287.61519675943657 383.64673556161284L262.4970715688729 383.64673556161284L262.4970715688729 241.13114263501762L286.9064460486419 241.13114263501762L286.9064460486419 328.42088017649104L332.4649417385242 279.488731103226L362.0623714213103 279.488731103226L322.7975820432847 320.8514225852038L345.2224545328285 351.44110326310243Q352.5084118397979 363.00791486327165 356.1939155359303 368.3944202653112L356.1939155359303 368.3944202653112L362.77112213210495 377.66487956250575Q365.7478751174426 381.5488334576606 367.76072713609955 383.64673556161284L367.76072713609955 383.64673556161284L351.99811132802574 383.64673556161284Q343.2379525426034 383.64673556161284 336.9442462307466 385.1492870684976L336.9442462307466 385.1492870684976L305.84426504107586 339.70419149234243L286.9064460486419 359.8327116789115Z " fill="#ccf381" transform="matrix(1.0308392749763766,0,0,1.0308392749763766,0,-19.714087468981177)"/><path d="M561.6653380940704 242.097735619727L561.6653380940704 373.06385061524844Q561.6653380940704 381.25599199502614 562.0438528772945 383.71633808598244L562.0438528772945 383.71633808598244L537.9270538318764 383.71633808598244L537.9270538318764 242.097735619727L561.6653380940704 242.097735619727ZM581.1588494301091 334.56348980731644L581.1588494301091 334.56348980731644Q581.1588494301091 324.12729649842476 584.7277031005071 314.5562798369024Q588.2965567709055 305.0122999456102 594.9476022475565 297.87459260481387L594.9476022475565 297.87459260481387Q609.4933846314523 282.49067034377924 632.6909334890404 282.49067034377924L632.6909334890404 282.49067034377924Q655.7803352657075 282.49067034377924 669.3798306915431 297.0364527276749L669.3798306915431 297.0364527276749Q682.3845171723123 310.9063158558133 682.3845171723123 333.0494306744203L682.3845171723123 333.0494306744203Q682.3845171723123 355.19254549302724 669.001315908319 369.7383278769228L669.001315908319 369.7383278769228Q654.8340483076473 385.1492869081878 631.447242058447 385.1492869081878L631.447242058447 385.1492869081878Q607.3034062427987 385.1492869081878 593.6228005062724 370.03573234945605L593.6228005062724 370.03573234945605Q581.1588494301091 356.24697953200854 581.1588494301091 334.56348980731644ZM604.2482512067761 333.9957176324804L604.2482512067761 333.9957176324804Q604.2482512067761 339.9978806236046 606.2489722038174 345.5944920612745Q608.2496932008589 351.2181402691747 611.9537307224085 355.19254549302724L611.9537307224085 355.19254549302724Q619.848467629653 363.8443119667198 632.6909334890404 363.8443119667198L632.6909334890404 363.8443119667198Q644.5600756201374 363.8443119667198 651.4003784884006 355.3818028846392L651.4003784884006 355.3818028846392Q658.0514239650519 347.21669827509186 658.0514239650519 334.10386471340155L658.0514239650519 334.10386471340155Q658.0514239650519 320.8017737600992 651.2111210967886 312.60963238032156L651.2111210967886 312.60963238032156Q643.8841563643801 303.8767555959381 631.1498375859139 303.8767555959381L631.1498375859139 303.8767555959381Q618.2262614158356 303.8767555959381 610.9263334536574 313.17740455515764L610.9263334536574 313.17740455515764Q604.2482512067761 321.7480607181593 604.2482512067761 333.9957176324804ZM726.8870409713685 361.00545109253943L726.8870409713685 371.1712766991282Q726.8870409713685 379.3363813086756 727.5359234568954 383.71633808598244L727.5359234568954 383.71633808598244L703.5813450328591 383.71633808598244L703.5813450328591 247.80249413831802L726.8870409713685 247.80249413831802L726.8870409713685 331.04870967737884L770.3080939612131 284.38324425989947L798.534482081635 284.38324425989947L761.0885553126844 323.82989202589164L782.4746405648433 353.0025671043738Q789.4230905140276 364.0335693583318 792.9378706439651 369.1705557020868L792.9378706439651 369.1705557020868L799.2104013373925 378.0115795673914Q802.0492622115727 381.71561708894103 803.9688728979232 383.71633808598244L803.9688728979232 383.71633808598244L788.9364286498823 383.71633808598244Q780.5820666487231 383.71633808598244 774.5799036575987 385.1492869081878L774.5799036575987 385.1492869081878L744.9476034852017 341.809344229034L726.8870409713685 361.00545109253943ZM833.8985775428536 271.4596680898212L812.5124922906947 256.0757458287866Q820.1098247254059 244.1795669274593 828.3830764158746 235.14928567054264L828.3830764158746 235.14928567054264L848.8228747099732 251.2091271873345Q844.7403224051994 256.2650032203986 841.225542275262 261.1045850916204L841.225542275262 261.1045850916204Q841.225542275262 261.1045850916204 833.8985775428536 271.4596680898212L833.8985775428536 271.4596680898212ZM837.5215047537123 284.38324425989947L837.5215047537123 373.06385061524844Q837.5215047537123 381.25599199502614 837.9000195369364 383.71633808598244L837.9000195369364 383.71633808598244L813.756183721288 383.71633808598244L813.756183721288 284.38324425989947L837.5215047537123 284.38324425989947Z " fill="#4831d4" transform="matrix(1.0308392749763766,0,0,1.0308392749763766,0,-19.714087468981177)"/></g></svg>